# MagicaVoxel @ Ephtracy

# group
o 

# material
mtllib Tower3.mtl
usemtl palette

# normals
vn -1 0 0
vn 1 0 0
vn 0 0 1
vn 0 0 -1
vn 0 -1 0
vn 0 1 0

# texcoords
vt 0.00195313 0.5
vt 0.880859 0.5
vt 0.912109 0.5

# verts
v -5 0 5
v -5 0 -5
v -5 0.1 5
v -5 0.1 2.3
v -5 0.1 -2.3
v -5 0.1 -5
v -5 0.6 1.5
v -5 0.6 -1.5
v -5 1.7 1.5
v -5 1.7 -1.5
v -5 2.1 1.5
v -5 2.1 -1.5
v -5 3.2 1.5
v -5 3.2 -1.5
v -5 3.6 1.5
v -5 3.6 -1.5
v -5 4.7 1.5
v -5 4.7 -1.5
v -5 5.1 1.5
v -5 5.1 -1.5
v -5 6.2 1.5
v -5 6.2 -1.5
v -5 6.6 2.3
v -5 6.6 -2.3
v -4.8 0.6 1.5
v -4.8 0.6 -1.5
v -4.8 1.7 1.5
v -4.8 1.7 -1.5
v -4.8 2.1 1.5
v -4.8 2.1 -1.5
v -4.8 3.2 1.5
v -4.8 3.2 -1.5
v -4.8 3.6 1.5
v -4.8 3.6 -1.5
v -4.8 4.7 1.5
v -4.8 4.7 -1.5
v -4.8 5.1 1.5
v -4.8 5.1 -1.5
v -4.8 6.2 1.5
v -4.8 6.2 -1.5
v -4.8 6.6 2.1
v -4.8 6.6 -2.1
v -4.8 6.7 2.1
v -4.8 6.7 -2.1
v -0.3 0.6 2.2
v -0.3 0.6 2.1
v -0.3 0.6 -2.1
v -0.3 0.6 -2.2
v -0.3 1.7 2.2
v -0.3 1.7 2.1
v -0.3 1.7 -2.1
v -0.3 1.7 -2.2
v -0.3 2.1 2.2
v -0.3 2.1 2.1
v -0.3 2.1 -2.1
v -0.3 2.1 -2.2
v -0.3 3.2 2.2
v -0.3 3.2 2.1
v -0.3 3.2 -2.1
v -0.3 3.2 -2.2
v -0.3 3.6 2.2
v -0.3 3.6 2.1
v -0.3 3.6 -2.1
v -0.3 3.6 -2.2
v -0.3 4.7 2.2
v -0.3 4.7 2.1
v -0.3 4.7 -2.1
v -0.3 4.7 -2.2
v -0.3 5.1 2.2
v -0.3 5.1 2.1
v -0.3 5.1 -2.1
v -0.3 5.1 -2.2
v -0.3 6.2 2.2
v -0.3 6.2 2.1
v -0.3 6.2 -2.1
v -0.3 6.2 -2.2
v 4.2 0.6 2.3
v 4.2 0.6 2.1
v 4.2 0.6 -2.1
v 4.2 0.6 -2.3
v 4.2 1.7 2.3
v 4.2 1.7 2.1
v 4.2 1.7 -2.1
v 4.2 1.7 -2.3
v 4.2 2.1 2.3
v 4.2 2.1 2.1
v 4.2 2.1 -2.1
v 4.2 2.1 -2.3
v 4.2 3.2 2.3
v 4.2 3.2 2.1
v 4.2 3.2 -2.1
v 4.2 3.2 -2.3
v 4.2 3.6 2.3
v 4.2 3.6 2.1
v 4.2 3.6 -2.1
v 4.2 3.6 -2.3
v 4.2 4.7 2.3
v 4.2 4.7 2.1
v 4.2 4.7 -2.1
v 4.2 4.7 -2.3
v 4.2 5.1 2.3
v 4.2 5.1 2.1
v 4.2 5.1 -2.1
v 4.2 5.1 -2.3
v 4.2 6.2 2.3
v 4.2 6.2 2.1
v 4.2 6.2 -2.1
v 4.2 6.2 -2.3
v -4.2 0.6 2.3
v -4.2 0.6 2.1
v -4.2 0.6 -2.1
v -4.2 0.6 -2.3
v -4.2 1.7 2.3
v -4.2 1.7 2.1
v -4.2 1.7 -2.1
v -4.2 1.7 -2.3
v -4.2 2.1 2.3
v -4.2 2.1 2.1
v -4.2 2.1 -2.1
v -4.2 2.1 -2.3
v -4.2 3.2 2.3
v -4.2 3.2 2.1
v -4.2 3.2 -2.1
v -4.2 3.2 -2.3
v -4.2 3.6 2.3
v -4.2 3.6 2.1
v -4.2 3.6 -2.1
v -4.2 3.6 -2.3
v -4.2 4.7 2.3
v -4.2 4.7 2.1
v -4.2 4.7 -2.1
v -4.2 4.7 -2.3
v -4.2 5.1 2.3
v -4.2 5.1 2.1
v -4.2 5.1 -2.1
v -4.2 5.1 -2.3
v -4.2 6.2 2.3
v -4.2 6.2 2.1
v -4.2 6.2 -2.1
v -4.2 6.2 -2.3
v 0.3 0.6 2.2
v 0.3 0.6 2.1
v 0.3 0.6 -2.1
v 0.3 0.6 -2.2
v 0.3 1.7 2.2
v 0.3 1.7 2.1
v 0.3 1.7 -2.1
v 0.3 1.7 -2.2
v 0.3 2.1 2.2
v 0.3 2.1 2.1
v 0.3 2.1 -2.1
v 0.3 2.1 -2.2
v 0.3 3.2 2.2
v 0.3 3.2 2.1
v 0.3 3.2 -2.1
v 0.3 3.2 -2.2
v 0.3 3.6 2.2
v 0.3 3.6 2.1
v 0.3 3.6 -2.1
v 0.3 3.6 -2.2
v 0.3 4.7 2.2
v 0.3 4.7 2.1
v 0.3 4.7 -2.1
v 0.3 4.7 -2.2
v 0.3 5.1 2.2
v 0.3 5.1 2.1
v 0.3 5.1 -2.1
v 0.3 5.1 -2.2
v 0.3 6.2 2.2
v 0.3 6.2 2.1
v 0.3 6.2 -2.1
v 0.3 6.2 -2.2
v 4.7 0.6 1.5
v 4.7 0.6 -1.5
v 4.7 1.7 1.5
v 4.7 1.7 -1.5
v 4.7 2.1 1.5
v 4.7 2.1 -1.5
v 4.7 3.2 1.5
v 4.7 3.2 -1.5
v 4.7 3.6 1.5
v 4.7 3.6 -1.5
v 4.7 4.7 1.5
v 4.7 4.7 -1.5
v 4.7 5.1 1.5
v 4.7 5.1 -1.5
v 4.7 6.2 1.5
v 4.7 6.2 -1.5
v 4.8 6.6 2.1
v 4.8 6.6 -2.1
v 4.8 6.7 2.1
v 4.8 6.7 -2.1
v 5 0 5
v 5 0 -5
v 5 0.1 5
v 5 0.1 2.3
v 5 0.1 -2.3
v 5 0.1 -5
v 5 0.6 1.5
v 5 0.6 -1.5
v 5 1.7 1.5
v 5 1.7 -1.5
v 5 2.1 1.5
v 5 2.1 -1.5
v 5 3.2 1.5
v 5 3.2 -1.5
v 5 3.6 1.5
v 5 3.6 -1.5
v 5 4.7 1.5
v 5 4.7 -1.5
v 5 5.1 1.5
v 5 5.1 -1.5
v 5 6.2 1.5
v 5 6.2 -1.5
v 5 6.6 2.3
v 5 6.6 -2.3
v -5 0 5
v -5 0.1 5
v 5 0 5
v 5 0.1 5
v -5 0.1 2.3
v -5 6.6 2.3
v -4.2 0.6 2.3
v -4.2 1.7 2.3
v -4.2 2.1 2.3
v -4.2 3.2 2.3
v -4.2 3.6 2.3
v -4.2 4.7 2.3
v -4.2 5.1 2.3
v -4.2 6.2 2.3
v 4.2 0.6 2.3
v 4.2 1.7 2.3
v 4.2 2.1 2.3
v 4.2 3.2 2.3
v 4.2 3.6 2.3
v 4.2 4.7 2.3
v 4.2 5.1 2.3
v 4.2 6.2 2.3
v 5 0.1 2.3
v 5 6.6 2.3
v -0.3 0.6 2.2
v -0.3 1.7 2.2
v -0.3 2.1 2.2
v -0.3 3.2 2.2
v -0.3 3.6 2.2
v -0.3 4.7 2.2
v -0.3 5.1 2.2
v -0.3 6.2 2.2
v 0.3 0.6 2.2
v 0.3 1.7 2.2
v 0.3 2.1 2.2
v 0.3 3.2 2.2
v 0.3 3.6 2.2
v 0.3 4.7 2.2
v 0.3 5.1 2.2
v 0.3 6.2 2.2
v -4.8 6.6 2.1
v -4.8 6.7 2.1
v -4.2 0.6 2.1
v -4.2 1.7 2.1
v -4.2 2.1 2.1
v -4.2 3.2 2.1
v -4.2 3.6 2.1
v -4.2 4.7 2.1
v -4.2 5.1 2.1
v -4.2 6.2 2.1
v -0.3 0.6 2.1
v -0.3 1.7 2.1
v -0.3 2.1 2.1
v -0.3 3.2 2.1
v -0.3 3.6 2.1
v -0.3 4.7 2.1
v -0.3 5.1 2.1
v -0.3 6.2 2.1
v 0.3 0.6 2.1
v 0.3 1.7 2.1
v 0.3 2.1 2.1
v 0.3 3.2 2.1
v 0.3 3.6 2.1
v 0.3 4.7 2.1
v 0.3 5.1 2.1
v 0.3 6.2 2.1
v 4.2 0.6 2.1
v 4.2 1.7 2.1
v 4.2 2.1 2.1
v 4.2 3.2 2.1
v 4.2 3.6 2.1
v 4.2 4.7 2.1
v 4.2 5.1 2.1
v 4.2 6.2 2.1
v 4.8 6.6 2.1
v 4.8 6.7 2.1
v -5 0.6 -1.5
v -5 1.7 -1.5
v -5 2.1 -1.5
v -5 3.2 -1.5
v -5 3.6 -1.5
v -5 4.7 -1.5
v -5 5.1 -1.5
v -5 6.2 -1.5
v -4.8 0.6 -1.5
v -4.8 1.7 -1.5
v -4.8 2.1 -1.5
v -4.8 3.2 -1.5
v -4.8 3.6 -1.5
v -4.8 4.7 -1.5
v -4.8 5.1 -1.5
v -4.8 6.2 -1.5
v 4.7 0.6 -1.5
v 4.7 1.7 -1.5
v 4.7 2.1 -1.5
v 4.7 3.2 -1.5
v 4.7 3.6 -1.5
v 4.7 4.7 -1.5
v 4.7 5.1 -1.5
v 4.7 6.2 -1.5
v 5 0.6 -1.5
v 5 1.7 -1.5
v 5 2.1 -1.5
v 5 3.2 -1.5
v 5 3.6 -1.5
v 5 4.7 -1.5
v 5 5.1 -1.5
v 5 6.2 -1.5
v -5 0.6 1.5
v -5 1.7 1.5
v -5 2.1 1.5
v -5 3.2 1.5
v -5 3.6 1.5
v -5 4.7 1.5
v -5 5.1 1.5
v -5 6.2 1.5
v -4.8 0.6 1.5
v -4.8 1.7 1.5
v -4.8 2.1 1.5
v -4.8 3.2 1.5
v -4.8 3.6 1.5
v -4.8 4.7 1.5
v -4.8 5.1 1.5
v -4.8 6.2 1.5
v 4.7 0.6 1.5
v 4.7 1.7 1.5
v 4.7 2.1 1.5
v 4.7 3.2 1.5
v 4.7 3.6 1.5
v 4.7 4.7 1.5
v 4.7 5.1 1.5
v 4.7 6.2 1.5
v 5 0.6 1.5
v 5 1.7 1.5
v 5 2.1 1.5
v 5 3.2 1.5
v 5 3.6 1.5
v 5 4.7 1.5
v 5 5.1 1.5
v 5 6.2 1.5
v -4.8 6.6 -2.1
v -4.8 6.7 -2.1
v -4.2 0.6 -2.1
v -4.2 1.7 -2.1
v -4.2 2.1 -2.1
v -4.2 3.2 -2.1
v -4.2 3.6 -2.1
v -4.2 4.7 -2.1
v -4.2 5.1 -2.1
v -4.2 6.2 -2.1
v -0.3 0.6 -2.1
v -0.3 1.7 -2.1
v -0.3 2.1 -2.1
v -0.3 3.2 -2.1
v -0.3 3.6 -2.1
v -0.3 4.7 -2.1
v -0.3 5.1 -2.1
v -0.3 6.2 -2.1
v 0.3 0.6 -2.1
v 0.3 1.7 -2.1
v 0.3 2.1 -2.1
v 0.3 3.2 -2.1
v 0.3 3.6 -2.1
v 0.3 4.7 -2.1
v 0.3 5.1 -2.1
v 0.3 6.2 -2.1
v 4.2 0.6 -2.1
v 4.2 1.7 -2.1
v 4.2 2.1 -2.1
v 4.2 3.2 -2.1
v 4.2 3.6 -2.1
v 4.2 4.7 -2.1
v 4.2 5.1 -2.1
v 4.2 6.2 -2.1
v 4.8 6.6 -2.1
v 4.8 6.7 -2.1
v -0.3 0.6 -2.2
v -0.3 1.7 -2.2
v -0.3 2.1 -2.2
v -0.3 3.2 -2.2
v -0.3 3.6 -2.2
v -0.3 4.7 -2.2
v -0.3 5.1 -2.2
v -0.3 6.2 -2.2
v 0.3 0.6 -2.2
v 0.3 1.7 -2.2
v 0.3 2.1 -2.2
v 0.3 3.2 -2.2
v 0.3 3.6 -2.2
v 0.3 4.7 -2.2
v 0.3 5.1 -2.2
v 0.3 6.2 -2.2
v -5 0.1 -2.3
v -5 6.6 -2.3
v -4.2 0.6 -2.3
v -4.2 1.7 -2.3
v -4.2 2.1 -2.3
v -4.2 3.2 -2.3
v -4.2 3.6 -2.3
v -4.2 4.7 -2.3
v -4.2 5.1 -2.3
v -4.2 6.2 -2.3
v 4.2 0.6 -2.3
v 4.2 1.7 -2.3
v 4.2 2.1 -2.3
v 4.2 3.2 -2.3
v 4.2 3.6 -2.3
v 4.2 4.7 -2.3
v 4.2 5.1 -2.3
v 4.2 6.2 -2.3
v 5 0.1 -2.3
v 5 6.6 -2.3
v -5 0 -5
v -5 0.1 -5
v 5 0 -5
v 5 0.1 -5
v -5 0 5
v 5 0 5
v -5 0 -5
v 5 0 -5
v -4.2 1.7 2.3
v 4.2 1.7 2.3
v -0.3 1.7 2.2
v 0.3 1.7 2.2
v -4.2 1.7 2.1
v -0.3 1.7 2.1
v 0.3 1.7 2.1
v 4.2 1.7 2.1
v -5 1.7 1.5
v -4.8 1.7 1.5
v 4.7 1.7 1.5
v 5 1.7 1.5
v -5 1.7 -1.5
v -4.8 1.7 -1.5
v 4.7 1.7 -1.5
v 5 1.7 -1.5
v -4.2 1.7 -2.1
v -0.3 1.7 -2.1
v 0.3 1.7 -2.1
v 4.2 1.7 -2.1
v -0.3 1.7 -2.2
v 0.3 1.7 -2.2
v -4.2 1.7 -2.3
v 4.2 1.7 -2.3
v -4.2 3.2 2.3
v 4.2 3.2 2.3
v -0.3 3.2 2.2
v 0.3 3.2 2.2
v -4.2 3.2 2.1
v -0.3 3.2 2.1
v 0.3 3.2 2.1
v 4.2 3.2 2.1
v -5 3.2 1.5
v -4.8 3.2 1.5
v 4.7 3.2 1.5
v 5 3.2 1.5
v -5 3.2 -1.5
v -4.8 3.2 -1.5
v 4.7 3.2 -1.5
v 5 3.2 -1.5
v -4.2 3.2 -2.1
v -0.3 3.2 -2.1
v 0.3 3.2 -2.1
v 4.2 3.2 -2.1
v -0.3 3.2 -2.2
v 0.3 3.2 -2.2
v -4.2 3.2 -2.3
v 4.2 3.2 -2.3
v -4.2 4.7 2.3
v 4.2 4.7 2.3
v -0.3 4.7 2.2
v 0.3 4.7 2.2
v -4.2 4.7 2.1
v -0.3 4.7 2.1
v 0.3 4.7 2.1
v 4.2 4.7 2.1
v -5 4.7 1.5
v -4.8 4.7 1.5
v 4.7 4.7 1.5
v 5 4.7 1.5
v -5 4.7 -1.5
v -4.8 4.7 -1.5
v 4.7 4.7 -1.5
v 5 4.7 -1.5
v -4.2 4.7 -2.1
v -0.3 4.7 -2.1
v 0.3 4.7 -2.1
v 4.2 4.7 -2.1
v -0.3 4.7 -2.2
v 0.3 4.7 -2.2
v -4.2 4.7 -2.3
v 4.2 4.7 -2.3
v -4.2 6.2 2.3
v 4.2 6.2 2.3
v -0.3 6.2 2.2
v 0.3 6.2 2.2
v -4.2 6.2 2.1
v -0.3 6.2 2.1
v 0.3 6.2 2.1
v 4.2 6.2 2.1
v -5 6.2 1.5
v -4.8 6.2 1.5
v 4.7 6.2 1.5
v 5 6.2 1.5
v -5 6.2 -1.5
v -4.8 6.2 -1.5
v 4.7 6.2 -1.5
v 5 6.2 -1.5
v -4.2 6.2 -2.1
v -0.3 6.2 -2.1
v 0.3 6.2 -2.1
v 4.2 6.2 -2.1
v -0.3 6.2 -2.2
v 0.3 6.2 -2.2
v -4.2 6.2 -2.3
v 4.2 6.2 -2.3
v -5 0.1 5
v 5 0.1 5
v -5 0.1 2.3
v 5 0.1 2.3
v -5 0.1 -2.3
v 5 0.1 -2.3
v -5 0.1 -5
v 5 0.1 -5
v -4.2 0.6 2.3
v 4.2 0.6 2.3
v -0.3 0.6 2.2
v 0.3 0.6 2.2
v -4.2 0.6 2.1
v -0.3 0.6 2.1
v 0.3 0.6 2.1
v 4.2 0.6 2.1
v -5 0.6 1.5
v -4.8 0.6 1.5
v 4.7 0.6 1.5
v 5 0.6 1.5
v -5 0.6 -1.5
v -4.8 0.6 -1.5
v 4.7 0.6 -1.5
v 5 0.6 -1.5
v -4.2 0.6 -2.1
v -0.3 0.6 -2.1
v 0.3 0.6 -2.1
v 4.2 0.6 -2.1
v -0.3 0.6 -2.2
v 0.3 0.6 -2.2
v -4.2 0.6 -2.3
v 4.2 0.6 -2.3
v -4.2 2.1 2.3
v 4.2 2.1 2.3
v -0.3 2.1 2.2
v 0.3 2.1 2.2
v -4.2 2.1 2.1
v -0.3 2.1 2.1
v 0.3 2.1 2.1
v 4.2 2.1 2.1
v -5 2.1 1.5
v -4.8 2.1 1.5
v 4.7 2.1 1.5
v 5 2.1 1.5
v -5 2.1 -1.5
v -4.8 2.1 -1.5
v 4.7 2.1 -1.5
v 5 2.1 -1.5
v -4.2 2.1 -2.1
v -0.3 2.1 -2.1
v 0.3 2.1 -2.1
v 4.2 2.1 -2.1
v -0.3 2.1 -2.2
v 0.3 2.1 -2.2
v -4.2 2.1 -2.3
v 4.2 2.1 -2.3
v -4.2 3.6 2.3
v 4.2 3.6 2.3
v -0.3 3.6 2.2
v 0.3 3.6 2.2
v -4.2 3.6 2.1
v -0.3 3.6 2.1
v 0.3 3.6 2.1
v 4.2 3.6 2.1
v -5 3.6 1.5
v -4.8 3.6 1.5
v 4.7 3.6 1.5
v 5 3.6 1.5
v -5 3.6 -1.5
v -4.8 3.6 -1.5
v 4.7 3.6 -1.5
v 5 3.6 -1.5
v -4.2 3.6 -2.1
v -0.3 3.6 -2.1
v 0.3 3.6 -2.1
v 4.2 3.6 -2.1
v -0.3 3.6 -2.2
v 0.3 3.6 -2.2
v -4.2 3.6 -2.3
v 4.2 3.6 -2.3
v -4.2 5.1 2.3
v 4.2 5.1 2.3
v -0.3 5.1 2.2
v 0.3 5.1 2.2
v -4.2 5.1 2.1
v -0.3 5.1 2.1
v 0.3 5.1 2.1
v 4.2 5.1 2.1
v -5 5.1 1.5
v -4.8 5.1 1.5
v 4.7 5.1 1.5
v 5 5.1 1.5
v -5 5.1 -1.5
v -4.8 5.1 -1.5
v 4.7 5.1 -1.5
v 5 5.1 -1.5
v -4.2 5.1 -2.1
v -0.3 5.1 -2.1
v 0.3 5.1 -2.1
v 4.2 5.1 -2.1
v -0.3 5.1 -2.2
v 0.3 5.1 -2.2
v -4.2 5.1 -2.3
v 4.2 5.1 -2.3
v -5 6.6 2.3
v 5 6.6 2.3
v -4.8 6.6 2.1
v 4.8 6.6 2.1
v -4.8 6.6 -2.1
v 4.8 6.6 -2.1
v -5 6.6 -2.3
v 5 6.6 -2.3
v -4.8 6.7 2.1
v 4.8 6.7 2.1
v -4.8 6.7 -2.1
v 4.8 6.7 -2.1

# faces
f 3/1/1 2/1/1 1/1/1
f 4/1/1 2/1/1 3/1/1
f 5/1/1 2/1/1 4/1/1
f 6/1/1 2/1/1 5/1/1
f 7/3/1 5/3/1 4/3/1
f 8/3/1 5/3/1 7/3/1
f 9/3/1 7/3/1 4/3/1
f 10/3/1 5/3/1 8/3/1
f 11/3/1 9/3/1 4/3/1
f 11/3/1 10/3/1 9/3/1
f 12/3/1 5/3/1 10/3/1
f 12/3/1 10/3/1 11/3/1
f 13/3/1 11/3/1 4/3/1
f 14/3/1 5/3/1 12/3/1
f 15/3/1 13/3/1 4/3/1
f 15/3/1 14/3/1 13/3/1
f 16/3/1 5/3/1 14/3/1
f 16/3/1 14/3/1 15/3/1
f 17/3/1 15/3/1 4/3/1
f 18/3/1 5/3/1 16/3/1
f 19/3/1 17/3/1 4/3/1
f 19/3/1 18/3/1 17/3/1
f 20/3/1 5/3/1 18/3/1
f 20/3/1 18/3/1 19/3/1
f 21/3/1 19/3/1 4/3/1
f 22/3/1 5/3/1 20/3/1
f 23/3/1 21/3/1 4/3/1
f 23/3/1 22/3/1 21/3/1
f 24/3/1 5/3/1 22/3/1
f 24/3/1 22/3/1 23/3/1
f 27/2/1 26/2/1 25/2/1
f 28/2/1 26/2/1 27/2/1
f 31/2/1 30/2/1 29/2/1
f 32/2/1 30/2/1 31/2/1
f 35/2/1 34/2/1 33/2/1
f 36/2/1 34/2/1 35/2/1
f 39/2/1 38/2/1 37/2/1
f 40/2/1 38/2/1 39/2/1
f 43/3/1 42/3/1 41/3/1
f 44/3/1 42/3/1 43/3/1
f 49/3/1 46/3/1 45/3/1
f 50/3/1 46/3/1 49/3/1
f 51/3/1 48/3/1 47/3/1
f 52/3/1 48/3/1 51/3/1
f 57/3/1 54/3/1 53/3/1
f 58/3/1 54/3/1 57/3/1
f 59/3/1 56/3/1 55/3/1
f 60/3/1 56/3/1 59/3/1
f 65/3/1 62/3/1 61/3/1
f 66/3/1 62/3/1 65/3/1
f 67/3/1 64/3/1 63/3/1
f 68/3/1 64/3/1 67/3/1
f 73/3/1 70/3/1 69/3/1
f 74/3/1 70/3/1 73/3/1
f 75/3/1 72/3/1 71/3/1
f 76/3/1 72/3/1 75/3/1
f 81/3/1 78/3/1 77/3/1
f 82/3/1 78/3/1 81/3/1
f 83/3/1 80/3/1 79/3/1
f 84/3/1 80/3/1 83/3/1
f 89/3/1 86/3/1 85/3/1
f 90/3/1 86/3/1 89/3/1
f 91/3/1 88/3/1 87/3/1
f 92/3/1 88/3/1 91/3/1
f 97/3/1 94/3/1 93/3/1
f 98/3/1 94/3/1 97/3/1
f 99/3/1 96/3/1 95/3/1
f 100/3/1 96/3/1 99/3/1
f 105/3/1 102/3/1 101/3/1
f 106/3/1 102/3/1 105/3/1
f 107/3/1 104/3/1 103/3/1
f 108/3/1 104/3/1 107/3/1
f 109/3/2 110/3/2 113/3/2
f 113/3/2 110/3/2 114/3/2
f 111/3/2 112/3/2 115/3/2
f 115/3/2 112/3/2 116/3/2
f 117/3/2 118/3/2 121/3/2
f 121/3/2 118/3/2 122/3/2
f 119/3/2 120/3/2 123/3/2
f 123/3/2 120/3/2 124/3/2
f 125/3/2 126/3/2 129/3/2
f 129/3/2 126/3/2 130/3/2
f 127/3/2 128/3/2 131/3/2
f 131/3/2 128/3/2 132/3/2
f 133/3/2 134/3/2 137/3/2
f 137/3/2 134/3/2 138/3/2
f 135/3/2 136/3/2 139/3/2
f 139/3/2 136/3/2 140/3/2
f 141/3/2 142/3/2 145/3/2
f 145/3/2 142/3/2 146/3/2
f 143/3/2 144/3/2 147/3/2
f 147/3/2 144/3/2 148/3/2
f 149/3/2 150/3/2 153/3/2
f 153/3/2 150/3/2 154/3/2
f 151/3/2 152/3/2 155/3/2
f 155/3/2 152/3/2 156/3/2
f 157/3/2 158/3/2 161/3/2
f 161/3/2 158/3/2 162/3/2
f 159/3/2 160/3/2 163/3/2
f 163/3/2 160/3/2 164/3/2
f 165/3/2 166/3/2 169/3/2
f 169/3/2 166/3/2 170/3/2
f 167/3/2 168/3/2 171/3/2
f 171/3/2 168/3/2 172/3/2
f 173/2/2 174/2/2 175/2/2
f 175/2/2 174/2/2 176/2/2
f 177/2/2 178/2/2 179/2/2
f 179/2/2 178/2/2 180/2/2
f 181/2/2 182/2/2 183/2/2
f 183/2/2 182/2/2 184/2/2
f 185/2/2 186/2/2 187/2/2
f 187/2/2 186/2/2 188/2/2
f 189/3/2 190/3/2 191/3/2
f 191/3/2 190/3/2 192/3/2
f 193/1/2 194/1/2 195/1/2
f 195/1/2 194/1/2 196/1/2
f 196/1/2 194/1/2 197/1/2
f 197/1/2 194/1/2 198/1/2
f 196/3/2 197/3/2 199/3/2
f 199/3/2 197/3/2 200/3/2
f 196/3/2 199/3/2 201/3/2
f 200/3/2 197/3/2 202/3/2
f 196/3/2 201/3/2 203/3/2
f 201/3/2 202/3/2 203/3/2
f 202/3/2 197/3/2 204/3/2
f 203/3/2 202/3/2 204/3/2
f 196/3/2 203/3/2 205/3/2
f 204/3/2 197/3/2 206/3/2
f 196/3/2 205/3/2 207/3/2
f 205/3/2 206/3/2 207/3/2
f 206/3/2 197/3/2 208/3/2
f 207/3/2 206/3/2 208/3/2
f 196/3/2 207/3/2 209/3/2
f 208/3/2 197/3/2 210/3/2
f 196/3/2 209/3/2 211/3/2
f 209/3/2 210/3/2 211/3/2
f 210/3/2 197/3/2 212/3/2
f 211/3/2 210/3/2 212/3/2
f 196/3/2 211/3/2 213/3/2
f 212/3/2 197/3/2 214/3/2
f 196/3/2 213/3/2 215/3/2
f 213/3/2 214/3/2 215/3/2
f 214/3/2 197/3/2 216/3/2
f 215/3/2 214/3/2 216/3/2
f 219/1/3 218/1/3 217/1/3
f 220/1/3 218/1/3 219/1/3
f 223/3/3 222/3/3 221/3/3
f 224/3/3 222/3/3 223/3/3
f 225/3/3 222/3/3 224/3/3
f 226/3/3 222/3/3 225/3/3
f 227/3/3 222/3/3 226/3/3
f 228/3/3 222/3/3 227/3/3
f 229/3/3 222/3/3 228/3/3
f 230/3/3 222/3/3 229/3/3
f 231/3/3 223/3/3 221/3/3
f 232/3/3 225/3/3 224/3/3
f 233/3/3 225/3/3 232/3/3
f 234/3/3 227/3/3 226/3/3
f 235/3/3 227/3/3 234/3/3
f 236/3/3 229/3/3 228/3/3
f 237/3/3 229/3/3 236/3/3
f 238/3/3 222/3/3 230/3/3
f 239/3/3 237/3/3 236/3/3
f 239/3/3 238/3/3 237/3/3
f 239/3/3 235/3/3 234/3/3
f 239/3/3 231/3/3 221/3/3
f 239/3/3 236/3/3 235/3/3
f 239/3/3 233/3/3 232/3/3
f 239/3/3 234/3/3 233/3/3
f 239/3/3 232/3/3 231/3/3
f 240/3/3 222/3/3 238/3/3
f 240/3/3 238/3/3 239/3/3
f 249/3/3 242/3/3 241/3/3
f 250/3/3 242/3/3 249/3/3
f 251/3/3 244/3/3 243/3/3
f 252/3/3 244/3/3 251/3/3
f 253/3/3 246/3/3 245/3/3
f 254/3/3 246/3/3 253/3/3
f 255/3/3 248/3/3 247/3/3
f 256/3/3 248/3/3 255/3/3
f 267/2/3 260/2/3 259/2/3
f 268/2/3 260/2/3 267/2/3
f 269/2/3 262/2/3 261/2/3
f 270/2/3 262/2/3 269/2/3
f 271/2/3 264/2/3 263/2/3
f 272/2/3 264/2/3 271/2/3
f 273/2/3 266/2/3 265/2/3
f 274/2/3 266/2/3 273/2/3
f 283/2/3 276/2/3 275/2/3
f 284/2/3 276/2/3 283/2/3
f 285/2/3 278/2/3 277/2/3
f 286/2/3 278/2/3 285/2/3
f 287/2/3 280/2/3 279/2/3
f 288/2/3 280/2/3 287/2/3
f 289/2/3 282/2/3 281/2/3
f 290/2/3 282/2/3 289/2/3
f 291/3/3 258/3/3 257/3/3
f 292/3/3 258/3/3 291/3/3
f 301/3/3 294/3/3 293/3/3
f 302/3/3 294/3/3 301/3/3
f 303/3/3 296/3/3 295/3/3
f 304/3/3 296/3/3 303/3/3
f 305/3/3 298/3/3 297/3/3
f 306/3/3 298/3/3 305/3/3
f 307/3/3 300/3/3 299/3/3
f 308/3/3 300/3/3 307/3/3
f 317/3/3 310/3/3 309/3/3
f 318/3/3 310/3/3 317/3/3
f 319/3/3 312/3/3 311/3/3
f 320/3/3 312/3/3 319/3/3
f 321/3/3 314/3/3 313/3/3
f 322/3/3 314/3/3 321/3/3
f 323/3/3 316/3/3 315/3/3
f 324/3/3 316/3/3 323/3/3
f 325/3/4 326/3/4 333/3/4
f 333/3/4 326/3/4 334/3/4
f 327/3/4 328/3/4 335/3/4
f 335/3/4 328/3/4 336/3/4
f 329/3/4 330/3/4 337/3/4
f 337/3/4 330/3/4 338/3/4
f 331/3/4 332/3/4 339/3/4
f 339/3/4 332/3/4 340/3/4
f 341/3/4 342/3/4 349/3/4
f 349/3/4 342/3/4 350/3/4
f 343/3/4 344/3/4 351/3/4
f 351/3/4 344/3/4 352/3/4
f 345/3/4 346/3/4 353/3/4
f 353/3/4 346/3/4 354/3/4
f 347/3/4 348/3/4 355/3/4
f 355/3/4 348/3/4 356/3/4
f 359/2/4 360/2/4 367/2/4
f 367/2/4 360/2/4 368/2/4
f 361/2/4 362/2/4 369/2/4
f 369/2/4 362/2/4 370/2/4
f 363/2/4 364/2/4 371/2/4
f 371/2/4 364/2/4 372/2/4
f 365/2/4 366/2/4 373/2/4
f 373/2/4 366/2/4 374/2/4
f 375/2/4 376/2/4 383/2/4
f 383/2/4 376/2/4 384/2/4
f 377/2/4 378/2/4 385/2/4
f 385/2/4 378/2/4 386/2/4
f 379/2/4 380/2/4 387/2/4
f 387/2/4 380/2/4 388/2/4
f 381/2/4 382/2/4 389/2/4
f 389/2/4 382/2/4 390/2/4
f 357/3/4 358/3/4 391/3/4
f 391/3/4 358/3/4 392/3/4
f 393/3/4 394/3/4 401/3/4
f 401/3/4 394/3/4 402/3/4
f 395/3/4 396/3/4 403/3/4
f 403/3/4 396/3/4 404/3/4
f 397/3/4 398/3/4 405/3/4
f 405/3/4 398/3/4 406/3/4
f 399/3/4 400/3/4 407/3/4
f 407/3/4 400/3/4 408/3/4
f 409/3/4 410/3/4 411/3/4
f 411/3/4 410/3/4 412/3/4
f 412/3/4 410/3/4 413/3/4
f 413/3/4 410/3/4 414/3/4
f 414/3/4 410/3/4 415/3/4
f 415/3/4 410/3/4 416/3/4
f 416/3/4 410/3/4 417/3/4
f 417/3/4 410/3/4 418/3/4
f 409/3/4 411/3/4 419/3/4
f 412/3/4 413/3/4 420/3/4
f 420/3/4 413/3/4 421/3/4
f 414/3/4 415/3/4 422/3/4
f 422/3/4 415/3/4 423/3/4
f 416/3/4 417/3/4 424/3/4
f 424/3/4 417/3/4 425/3/4
f 418/3/4 410/3/4 426/3/4
f 424/3/4 425/3/4 427/3/4
f 425/3/4 426/3/4 427/3/4
f 422/3/4 423/3/4 427/3/4
f 409/3/4 419/3/4 427/3/4
f 423/3/4 424/3/4 427/3/4
f 420/3/4 421/3/4 427/3/4
f 421/3/4 422/3/4 427/3/4
f 419/3/4 420/3/4 427/3/4
f 426/3/4 410/3/4 428/3/4
f 427/3/4 426/3/4 428/3/4
f 429/1/4 430/1/4 431/1/4
f 431/1/4 430/1/4 432/1/4
f 435/1/5 434/1/5 433/1/5
f 436/1/5 434/1/5 435/1/5
f 439/3/5 438/3/5 437/3/5
f 440/3/5 438/3/5 439/3/5
f 441/3/5 439/3/5 437/3/5
f 442/3/5 439/3/5 441/3/5
f 443/3/5 438/3/5 440/3/5
f 444/3/5 438/3/5 443/3/5
f 449/3/5 446/3/5 445/3/5
f 450/3/5 446/3/5 449/3/5
f 451/3/5 448/3/5 447/3/5
f 452/3/5 448/3/5 451/3/5
f 457/3/5 454/3/5 453/3/5
f 458/3/5 456/3/5 455/3/5
f 459/3/5 457/3/5 453/3/5
f 459/3/5 458/3/5 457/3/5
f 460/3/5 456/3/5 458/3/5
f 460/3/5 458/3/5 459/3/5
f 463/3/5 462/3/5 461/3/5
f 464/3/5 462/3/5 463/3/5
f 465/3/5 463/3/5 461/3/5
f 466/3/5 463/3/5 465/3/5
f 467/3/5 462/3/5 464/3/5
f 468/3/5 462/3/5 467/3/5
f 473/3/5 470/3/5 469/3/5
f 474/3/5 470/3/5 473/3/5
f 475/3/5 472/3/5 471/3/5
f 476/3/5 472/3/5 475/3/5
f 481/3/5 478/3/5 477/3/5
f 482/3/5 480/3/5 479/3/5
f 483/3/5 481/3/5 477/3/5
f 483/3/5 482/3/5 481/3/5
f 484/3/5 480/3/5 482/3/5
f 484/3/5 482/3/5 483/3/5
f 487/3/5 486/3/5 485/3/5
f 488/3/5 486/3/5 487/3/5
f 489/3/5 487/3/5 485/3/5
f 490/3/5 487/3/5 489/3/5
f 491/3/5 486/3/5 488/3/5
f 492/3/5 486/3/5 491/3/5
f 497/3/5 494/3/5 493/3/5
f 498/3/5 494/3/5 497/3/5
f 499/3/5 496/3/5 495/3/5
f 500/3/5 496/3/5 499/3/5
f 505/3/5 502/3/5 501/3/5
f 506/3/5 504/3/5 503/3/5
f 507/3/5 505/3/5 501/3/5
f 507/3/5 506/3/5 505/3/5
f 508/3/5 504/3/5 506/3/5
f 508/3/5 506/3/5 507/3/5
f 511/3/5 510/3/5 509/3/5
f 512/3/5 510/3/5 511/3/5
f 513/3/5 511/3/5 509/3/5
f 514/3/5 511/3/5 513/3/5
f 515/3/5 510/3/5 512/3/5
f 516/3/5 510/3/5 515/3/5
f 521/3/5 518/3/5 517/3/5
f 522/3/5 518/3/5 521/3/5
f 523/3/5 520/3/5 519/3/5
f 524/3/5 520/3/5 523/3/5
f 529/3/5 526/3/5 525/3/5
f 530/3/5 528/3/5 527/3/5
f 531/3/5 529/3/5 525/3/5
f 531/3/5 530/3/5 529/3/5
f 532/3/5 528/3/5 530/3/5
f 532/3/5 530/3/5 531/3/5
f 533/1/6 534/1/6 535/1/6
f 535/1/6 534/1/6 536/1/6
f 537/1/6 538/1/6 539/1/6
f 539/1/6 538/1/6 540/1/6
f 541/3/6 542/3/6 543/3/6
f 543/3/6 542/3/6 544/3/6
f 541/3/6 543/3/6 545/3/6
f 545/3/6 543/3/6 546/3/6
f 544/3/6 542/3/6 547/3/6
f 547/3/6 542/3/6 548/3/6
f 549/3/6 550/3/6 553/3/6
f 553/3/6 550/3/6 554/3/6
f 551/3/6 552/3/6 555/3/6
f 555/3/6 552/3/6 556/3/6
f 557/3/6 558/3/6 561/3/6
f 559/3/6 560/3/6 562/3/6
f 557/3/6 561/3/6 563/3/6
f 561/3/6 562/3/6 563/3/6
f 562/3/6 560/3/6 564/3/6
f 563/3/6 562/3/6 564/3/6
f 565/3/6 566/3/6 567/3/6
f 567/3/6 566/3/6 568/3/6
f 565/3/6 567/3/6 569/3/6
f 569/3/6 567/3/6 570/3/6
f 568/3/6 566/3/6 571/3/6
f 571/3/6 566/3/6 572/3/6
f 573/3/6 574/3/6 577/3/6
f 577/3/6 574/3/6 578/3/6
f 575/3/6 576/3/6 579/3/6
f 579/3/6 576/3/6 580/3/6
f 581/3/6 582/3/6 585/3/6
f 583/3/6 584/3/6 586/3/6
f 581/3/6 585/3/6 587/3/6
f 585/3/6 586/3/6 587/3/6
f 586/3/6 584/3/6 588/3/6
f 587/3/6 586/3/6 588/3/6
f 589/3/6 590/3/6 591/3/6
f 591/3/6 590/3/6 592/3/6
f 589/3/6 591/3/6 593/3/6
f 593/3/6 591/3/6 594/3/6
f 592/3/6 590/3/6 595/3/6
f 595/3/6 590/3/6 596/3/6
f 597/3/6 598/3/6 601/3/6
f 601/3/6 598/3/6 602/3/6
f 599/3/6 600/3/6 603/3/6
f 603/3/6 600/3/6 604/3/6
f 605/3/6 606/3/6 609/3/6
f 607/3/6 608/3/6 610/3/6
f 605/3/6 609/3/6 611/3/6
f 609/3/6 610/3/6 611/3/6
f 610/3/6 608/3/6 612/3/6
f 611/3/6 610/3/6 612/3/6
f 613/3/6 614/3/6 615/3/6
f 615/3/6 614/3/6 616/3/6
f 613/3/6 615/3/6 617/3/6
f 617/3/6 615/3/6 618/3/6
f 616/3/6 614/3/6 619/3/6
f 619/3/6 614/3/6 620/3/6
f 621/3/6 622/3/6 625/3/6
f 625/3/6 622/3/6 626/3/6
f 623/3/6 624/3/6 627/3/6
f 627/3/6 624/3/6 628/3/6
f 629/3/6 630/3/6 633/3/6
f 631/3/6 632/3/6 634/3/6
f 629/3/6 633/3/6 635/3/6
f 633/3/6 634/3/6 635/3/6
f 634/3/6 632/3/6 636/3/6
f 635/3/6 634/3/6 636/3/6
f 637/3/6 638/3/6 639/3/6
f 639/3/6 638/3/6 640/3/6
f 637/3/6 639/3/6 641/3/6
f 640/3/6 638/3/6 642/3/6
f 637/3/6 641/3/6 643/3/6
f 641/3/6 642/3/6 643/3/6
f 642/3/6 638/3/6 644/3/6
f 643/3/6 642/3/6 644/3/6
f 645/3/6 646/3/6 647/3/6
f 647/3/6 646/3/6 648/3/6
